<svg width="200" height="200" viewBox="0 0 200 200" fill="none" xmlns="http://www.w3.org/2000/svg">
<rect width="200" height="200" fill="#333333"/>
<rect x="101" y="25" width="76" height="74" rx="5" fill="#714924"/>
<rect x="23" y="25" width="76" height="74" rx="5" fill="#316159"/>
<rect x="101" y="101" width="76" height="74" rx="5" fill="#444444"/>
<circle cx="138.5" cy="62.5" r="26.5" stroke="#FF7B00" stroke-width="8"/>
<path fill-rule="evenodd" clip-rule="evenodd" d="M36.1716 37.1716C34.6095 38.7337 34.6095 41.2663 36.1716 42.8284L55.3083 61.9651L36.1716 81.1018C34.6095 82.6639 34.6095 85.1965 36.1716 86.7586C37.7337 88.3207 40.2663 88.3207 41.8284 86.7586L60.9651 67.6219L80.1017 86.7585C81.6638 88.3206 84.1965 88.3206 85.7586 86.7585C87.3207 85.1964 87.3207 82.6638 85.7586 81.1017L66.622 61.9651L85.7585 42.8285C87.3206 41.2664 87.3206 38.7338 85.7585 37.1717C84.1964 35.6096 81.6638 35.6096 80.1017 37.1717L60.9651 56.3082L41.8285 37.1716C40.2664 35.6095 37.7337 35.6095 36.1716 37.1716Z" fill="#2CCAB0"/>
</svg>
