<svg width="619" height="614" viewBox="0 0 619 614" fill="none" xmlns="http://www.w3.org/2000/svg">
<path fill-rule="evenodd" clip-rule="evenodd" d="M315.132 525.365L309.629 514.349L277.011 525.232C283.607 525.741 290.273 526 297 526C303.087 526 309.134 525.786 315.132 525.365ZM208.09 510.146L232.446 437.082L150.134 395.972C139.009 390.409 139.009 374.591 150.134 369.028L232.446 327.831L203.328 240.569C199.33 228.836 210.542 217.624 222.363 221.535L246.559 229.6C246.211 224.752 246.033 219.851 246.033 214.904C246.033 142.682 284.695 76.269 347.531 40.51C357.217 34.998 354.781 20.313 343.775 18.28C328.346 15.4349 312.689 14.0023 297 14C155.691 14 41 128.511 41 270C41 380.08 110.49 474.006 208.09 510.146Z" fill="black"/>
<path d="M364.299 301.688C319.766 301.688 283.483 337.969 283.483 382.5C283.483 427.031 319.766 463.312 364.299 463.312C408.833 463.312 445.116 427.031 445.116 382.5C445.116 337.969 408.833 301.688 364.299 301.688ZM571.728 369.452L492.006 329.635L520.208 245.119C523.996 233.67 513.136 222.811 501.772 226.683L417.251 254.884L377.348 175.081C371.96 164.306 356.639 164.306 351.251 175.081L311.432 254.799L226.827 226.599C215.378 222.811 204.519 233.67 208.391 245.035L236.593 329.551L156.871 369.452C146.095 374.84 146.095 390.16 156.871 395.548L236.593 435.365L208.391 519.965C204.603 531.414 215.463 542.273 226.827 538.401L311.348 510.201L351.167 589.919C356.555 600.694 371.876 600.694 377.264 589.919L417.083 510.201L501.603 538.401C513.052 542.189 523.912 531.33 520.039 519.965L491.838 435.449L571.56 395.632C582.504 390.16 582.504 374.84 571.728 369.452ZM440.486 458.683C398.478 500.688 330.121 500.688 288.113 458.683C246.105 416.677 246.105 348.323 288.113 306.317C330.121 264.312 398.478 264.312 440.486 306.317C482.493 348.323 482.493 416.677 440.486 458.683Z" fill="black"/>
</svg>
