<?xml version="1.0" standalone="no"?>
<!DOCTYPE svg PUBLIC "-//W3C//DTD SVG 20010904//EN"
 "http://www.w3.org/TR/2001/REC-SVG-20010904/DTD/svg10.dtd">
<svg version="1.0" xmlns="http://www.w3.org/2000/svg"
 width="200.000000pt" height="200.000000pt" viewBox="0 0 200.000000 200.000000"
 preserveAspectRatio="xMidYMid meet">
<metadata>
Created by potrace 1.11, written by Peter Selinger 2001-2013
</metadata>
<g transform="translate(0.000000,200.000000) scale(0.100000,-0.100000)"
fill="#000000" stroke="none">
<path d="M246 1734 c-14 -13 -16 -60 -16 -354 0 -294 2 -341 16 -354 13 -14
60 -16 362 -16 273 1 351 3 365 14 16 12 17 41 17 354 0 296 -2 343 -16 356
-13 14 -60 16 -364 16 -304 0 -351 -2 -364 -16z"/>
<path d="M1026 1735 c-14 -14 -16 -57 -16 -355 0 -294 2 -341 16 -354 13 -14
61 -16 366 -16 322 0 352 1 364 17 11 14 13 90 14 353 0 194 -4 341 -10 350
-8 13 -62 15 -364 18 -314 2 -356 1 -370 -13z"/>
<path d="M1026 975 c-14 -14 -16 -57 -16 -355 0 -294 2 -341 16 -354 13 -14
60 -16 363 -16 324 0 349 1 364 18 15 17 17 56 17 353 0 193 -4 340 -10 349
-8 13 -62 15 -364 18 -314 2 -356 1 -370 -13z"/>
</g>
</svg>
